<svg version="1.1" xmlns="http://www.w3.org/2000/svg" viewBox="0 0 447.6490295938589 541.23046875" width="895.2980591877179" height="1082.4609375">
  <!-- svg-source:excalidraw -->
  
  <defs>
    <style class="style-fonts">
      @font-face {
        font-family: "Virgil";
        src: url("https://excalidraw.com/Virgil.woff2");
      }
      @font-face {
        font-family: "Cascadia";
        src: url("https://excalidraw.com/Cascadia.woff2");
      }
    </style>
    
  </defs>
  <g stroke-linecap="round" transform="translate(10.233798929620548 58.5859375) rotate(0 213.48828125 236.322265625)"><path d="M32 0 M32 0 C118.13 -1.87, 205.16 -0.72, 394.98 0 M32 0 C152.07 0.18, 270.55 0.6, 394.98 0 M394.98 0 C418.25 -1.8, 427.13 11.58, 426.98 32 M394.98 0 C415.84 -0.71, 426.57 10.54, 426.98 32 M426.98 32 C424.6 139.1, 425.04 244.08, 426.98 440.64 M426.98 32 C425.75 123.83, 425.91 215.73, 426.98 440.64 M426.98 440.64 C428.49 461.41, 414.63 470.71, 394.98 472.64 M426.98 440.64 C427.92 462.87, 415.32 473.55, 394.98 472.64 M394.98 472.64 C304.09 471.77, 213.15 473.65, 32 472.64 M394.98 472.64 C279.72 470.75, 163.94 470.81, 32 472.64 M32 472.64 C11.55 472.68, -1.21 461.98, 0 440.64 M32 472.64 C8.93 471.01, -0.48 462.3, 0 440.64 M0 440.64 C1.83 332.49, 0.49 226.13, 0 32 M0 440.64 C1.06 331.17, 1.78 220.77, 0 32 M0 32 C0.46 8.81, 10.73 0.66, 32 0 M0 32 C0.95 10.68, 11.18 -1.96, 32 0" stroke="#1e1e1e" stroke-width="1" fill="none"></path></g><g transform="translate(146.45254892962055 10) rotate(0 71.8919677734375 22.5)"><text x="0" y="0" font-family="Virgil, Segoe UI Emoji" font-size="36px" fill="#1e1e1e" text-anchor="start" style="white-space: pre;" direction="ltr" dominant-baseline="text-before-edge">Request</text></g><g stroke-linecap="round"><g transform="translate(10.948642679620548 150.859375) rotate(0 212.70241174353288 0.4072720749862526)"><path d="M0.33 -0.41 C70.91 -0.02, 353.48 0.9, 424.18 1.31 M-0.95 -1.67 C69.93 -1.05, 355.63 1.65, 426.35 2.49" stroke="#1e1e1e" stroke-width="1" fill="none"></path></g></g><mask></mask><g transform="translate(44.18692392962055 87.54296875) rotate(0 182.35797119140625 22.5)"><text x="0" y="0" font-family="Virgil, Segoe UI Emoji" font-size="36px" fill="#1e1e1e" text-anchor="start" style="white-space: pre;" direction="ltr" dominant-baseline="text-before-edge">GET /home HTTP/1.1</text></g><g stroke-linecap="round"><g transform="translate(11.835361429620548 335.61328125) rotate(0 212.5654636885971 0.9528320206329113)"><path d="M-0.68 0.22 C70.26 0.43, 354.83 1.06, 425.81 1.45 M1.16 -0.71 C71.96 -0.38, 354.53 2.43, 425.06 2.62" stroke="#1e1e1e" stroke-width="1" fill="none"></path></g></g><mask></mask><g transform="translate(147.45254892962055 221.6171875) rotate(0 69.3719711303711 22.5)"><text x="0" y="0" font-family="Virgil, Segoe UI Emoji" font-size="36px" fill="#1e1e1e" text-anchor="start" style="white-space: pre;" direction="ltr" dominant-baseline="text-before-edge">Headers</text></g><g transform="translate(95.40958017962055 405.94140625) rotate(0 132.3719482421875 22.5)"><text x="0" y="0" font-family="Virgil, Segoe UI Emoji" font-size="36px" fill="#1e1e1e" text-anchor="start" style="white-space: pre;" direction="ltr" dominant-baseline="text-before-edge">Body (optional)</text></g><g stroke-linecap="round"><g transform="translate(12.944736429620548 305.90234375) rotate(0 211.8911425020546 0.09389069359747282)"><path d="M-0.82 -0.01 C69.76 0.04, 353.68 0.11, 424.6 0.25 M0.95 -1.06 C71.32 -0.89, 353.35 0.75, 423.9 1.25" stroke="#1e1e1e" stroke-width="1" fill="none"></path></g></g><mask></mask></svg>