<svg version="1.1" xmlns="http://www.w3.org/2000/svg" viewBox="0 0 492.703125 527.64453125" width="1478.109375" height="1582.93359375">
  <!-- svg-source:excalidraw -->
  
  <defs>
    <style class="style-fonts">
      @font-face {
        font-family: "Virgil";
        src: url("https://excalidraw.com/Virgil.woff2");
      }
      @font-face {
        font-family: "Cascadia";
        src: url("https://excalidraw.com/Cascadia.woff2");
      }
    </style>
    
  </defs>
  <g transform="translate(190.4140625 10) rotate(0 55.52997589111328 22.5)"><text x="0" y="0" font-family="Virgil, Segoe UI Emoji" font-size="36px" fill="#1e1e1e" text-anchor="start" style="white-space: pre;" direction="ltr" dominant-baseline="text-before-edge">Server</text></g><g stroke-linecap="round" transform="translate(116.40625 97.34375) rotate(0 129.765625 60.02734375)"><path d="M30.01 0 M30.01 0 C86.43 -1.25, 141.64 -0.79, 229.52 0 M30.01 0 C80.62 -0.35, 130.06 1.42, 229.52 0 M229.52 0 C250.19 1.59, 261.09 9.07, 259.53 30.01 M229.52 0 C247.67 0.04, 261.28 9.78, 259.53 30.01 M259.53 30.01 C258.98 50.62, 259.27 72.14, 259.53 90.04 M259.53 30.01 C260.48 47.86, 260.42 65.86, 259.53 90.04 M259.53 90.04 C259.27 110.43, 250.98 119.14, 229.52 120.05 M259.53 90.04 C257.76 110.08, 248.05 119.66, 229.52 120.05 M229.52 120.05 C167.55 118.36, 108.28 117.7, 30.01 120.05 M229.52 120.05 C189.61 121.37, 149.94 121.03, 30.01 120.05 M30.01 120.05 C9.25 119.61, 0.98 112.01, 0 90.04 M30.01 120.05 C12.29 121.92, 0.53 108.31, 0 90.04 M0 90.04 C0.66 70.64, -0.25 50.87, 0 30.01 M0 90.04 C-0.85 74.79, 0.36 60.64, 0 30.01 M0 30.01 C1.05 10.35, 10.47 1.41, 30.01 0 M0 30.01 C1.48 8.3, 8.46 -0.72, 30.01 0" stroke="#1e1e1e" stroke-width="1" fill="none"></path></g><g transform="translate(184.80989837646484 134.87109375) rotate(0 61.361976623535156 22.5)"><text x="61.361976623535156" y="0" font-family="Virgil, Segoe UI Emoji" font-size="36px" fill="#1e1e1e" text-anchor="middle" style="white-space: pre;" direction="ltr" dominant-baseline="text-before-edge">Uvicorn</text></g><g stroke-linecap="round" transform="translate(116.71875 360.2578125) rotate(0 129.765625 60.02734375)"><path d="M30.01 0 M30.01 0 C106.09 -0.08, 177.16 0.19, 229.52 0 M30.01 0 C90.39 -1.92, 152.4 -2.14, 229.52 0 M229.52 0 C247.53 1.24, 257.81 11.8, 259.53 30.01 M229.52 0 C250.19 0.6, 260.82 7.87, 259.53 30.01 M259.53 30.01 C258.36 51.57, 258.31 75.27, 259.53 90.04 M259.53 30.01 C258.97 42.83, 259.96 56.93, 259.53 90.04 M259.53 90.04 C257.87 110.67, 248.09 118.59, 229.52 120.05 M259.53 90.04 C258.15 108.31, 251.04 122.2, 229.52 120.05 M229.52 120.05 C170.41 120.78, 110.37 119.81, 30.01 120.05 M229.52 120.05 C164 120.09, 98.4 120.11, 30.01 120.05 M30.01 120.05 C9.63 122.01, -0.78 110.77, 0 90.04 M30.01 120.05 C8.74 120.3, -0.35 110.94, 0 90.04 M0 90.04 C-0.07 76.91, -2.11 63.76, 0 30.01 M0 90.04 C0.45 75.63, 0.17 60.37, 0 30.01 M0 30.01 C0.48 9.48, 11.79 -1.38, 30.01 0 M0 30.01 C-1.22 9.32, 8.15 1.68, 30.01 0" stroke="#1e1e1e" stroke-width="1" fill="none"></path></g><g transform="translate(170.6864013671875 397.78515625) rotate(0 75.7979736328125 22.5)"><text x="75.7979736328125" y="0" font-family="Virgil, Segoe UI Emoji" font-size="36px" fill="#1e1e1e" text-anchor="middle" style="white-space: pre;" direction="ltr" dominant-baseline="text-before-edge">FastAPI</text></g><g stroke-linecap="round"><g transform="translate(214.9161591855634 231.09375000000006) rotate(0 0.08477672625957666 56.666586199030235)"><path d="M-0.8 -0.98 C-0.86 18.07, -0.2 95.38, -0.39 114.31 M0.98 1.13 C0.87 19.81, -0.08 93.81, -0.73 112.51" stroke="#1e1e1e" stroke-width="1" fill="none"></path></g><g transform="translate(214.9161591855634 231.09375000000006) rotate(0 0.08477672625957666 56.666586199030235)"><path d="M-11.99 86.02 C-6.49 91.85, -6.51 99.34, -0.47 114.13 M-11.02 84.47 C-8.84 90.18, -6.91 97.56, -0.67 111.66" stroke="#1e1e1e" stroke-width="1" fill="none"></path></g><g transform="translate(214.9161591855634 231.09375000000006) rotate(0 0.08477672625957666 56.666586199030235)"><path d="M8.52 86.47 C7.97 92.04, 1.9 99.39, -0.47 114.13 M9.5 84.92 C7.18 90.36, 4.62 97.64, -0.67 111.66" stroke="#1e1e1e" stroke-width="1" fill="none"></path></g></g><mask></mask><g stroke-linecap="round"><g transform="translate(273.453125 338.6953125) rotate(0 -1.5648956388956208 -52.775892972154566)"><path d="M0.12 0.87 C-0.09 -16.64, -1.61 -86.98, -2.04 -104.52 M-1.27 0.28 C-1.62 -17.65, -3.44 -88.65, -3.24 -106.42" stroke="#1e1e1e" stroke-width="1" fill="none"></path></g><g transform="translate(273.453125 338.6953125) rotate(0 -1.5648956388956208 -52.775892972154566)"><path d="M8.75 -79.13 C5.38 -86.47, 3.17 -89.94, -4.05 -106.51 M6.84 -78.35 C4.41 -87.95, -0.92 -98.04, -4.16 -105.71" stroke="#1e1e1e" stroke-width="1" fill="none"></path></g><g transform="translate(273.453125 338.6953125) rotate(0 -1.5648956388956208 -52.775892972154566)"><path d="M-11.77 -78.93 C-10.29 -86.34, -7.63 -89.85, -4.05 -106.51 M-13.68 -78.15 C-9.07 -87.88, -7.35 -98.04, -4.16 -105.71" stroke="#1e1e1e" stroke-width="1" fill="none"></path></g></g><mask></mask><g stroke-linecap="round" transform="translate(10 60.9765625) rotate(0 236.3515625 228.333984375)"><path d="M32 0 M32 0 C157.74 -0.38, 285.37 -0.65, 440.7 0 M32 0 C173.09 0.5, 314.15 0.42, 440.7 0 M440.7 0 C463.11 0.66, 472.74 10.34, 472.7 32 M440.7 0 C461.46 1.54, 473.62 9.79, 472.7 32 M472.7 32 C475 124.96, 473.57 216.64, 472.7 424.67 M472.7 32 C473.38 142.97, 473.2 254.14, 472.7 424.67 M472.7 424.67 C472.96 447.49, 462.2 455.86, 440.7 456.67 M472.7 424.67 C471.47 447.18, 461.96 458.12, 440.7 456.67 M440.7 456.67 C358.03 457.64, 273.47 455.78, 32 456.67 M440.7 456.67 C346.82 455.65, 253.43 456.26, 32 456.67 M32 456.67 C10.56 456.88, 0.28 447.97, 0 424.67 M32 456.67 C10.63 456.86, 1.29 446.04, 0 424.67 M0 424.67 C-1.88 278.61, -1.7 133.22, 0 32 M0 424.67 C0.54 330.25, 1.03 235.15, 0 32 M0 32 C-0.04 10.36, 9.97 -1.1, 32 0 M0 32 C-2.2 11.92, 10.52 -1.41, 32 0" stroke="#1e1e1e" stroke-width="1" fill="none"></path></g></svg>