<svg version="1.1" xmlns="http://www.w3.org/2000/svg" viewBox="0 0 532.9375 344.34375" width="1065.875" height="688.6875">
  <!-- svg-source:excalidraw -->
  
  <defs>
    <style class="style-fonts">
      @font-face {
        font-family: "Virgil";
        src: url("https://excalidraw.com/Virgil.woff2");
      }
      @font-face {
        font-family: "Cascadia";
        src: url("https://excalidraw.com/Cascadia.woff2");
      }
    </style>
    
  </defs>
  <g stroke-linecap="round" transform="translate(10 10) rotate(0 256.46875 162.171875)"><path d="M32 0 M32 0 C177.48 0.03, 323.59 -0.91, 480.94 0 M32 0 C165.96 1.21, 300.24 1.67, 480.94 0 M480.94 0 C501.27 0.65, 511.3 11.17, 512.94 32 M480.94 0 C503.06 -0.88, 513.91 11.31, 512.94 32 M512.94 32 C514.56 102.78, 514.42 176.29, 512.94 292.34 M512.94 32 C513.91 112.92, 513.15 195.22, 512.94 292.34 M512.94 292.34 C511.64 314.99, 502.16 323.74, 480.94 324.34 M512.94 292.34 C510.69 313.31, 502.72 325.83, 480.94 324.34 M480.94 324.34 C326.22 325.69, 171.61 324.73, 32 324.34 M480.94 324.34 C334.44 323.09, 188.07 323.71, 32 324.34 M32 324.34 C10.03 324.48, -1.83 311.81, 0 292.34 M32 324.34 C12.18 323.05, 0.79 315.53, 0 292.34 M0 292.34 C-2.36 189.44, -0.71 89.52, 0 32 M0 292.34 C0.96 231.72, 0.81 172.19, 0 32 M0 32 C1.39 11.31, 10.48 1.58, 32 0 M0 32 C0.88 11.33, 9.62 -0.33, 32 0" stroke="#1e1e1e" stroke-width="1" fill="none"></path></g><g transform="translate(149.7421875 21.82421875) rotate(0 114.15595245361328 22.5)"><text x="0" y="0" font-family="Virgil, Segoe UI Emoji" font-size="36px" fill="#1e1e1e" text-anchor="start" style="white-space: pre;" direction="ltr" dominant-baseline="text-before-edge">Middleware A</text></g><g stroke-linecap="round" transform="translate(73.87890625 77.6640625) rotate(0 183.646484375 99.546875)"><path d="M32 0 M32 0 C102.88 0.39, 173.55 1.22, 335.29 0 M32 0 C112.24 1.45, 192.71 1.64, 335.29 0 M335.29 0 C356.11 -1.01, 368.35 8.9, 367.29 32 M335.29 0 C355.47 0.52, 367.72 10.15, 367.29 32 M367.29 32 C366.09 69.59, 366.94 107.88, 367.29 167.09 M367.29 32 C367.32 82.49, 366.21 132.23, 367.29 167.09 M367.29 167.09 C365.42 187.65, 354.89 198.78, 335.29 199.09 M367.29 167.09 C369.3 189.47, 357.27 199.87, 335.29 199.09 M335.29 199.09 C227.35 197.96, 119.8 196.82, 32 199.09 M335.29 199.09 C251.08 199.92, 166.06 199.03, 32 199.09 M32 199.09 C11.28 198.35, -1.16 188.45, 0 167.09 M32 199.09 C11.77 198.39, -2.09 190.38, 0 167.09 M0 167.09 C1.52 121.02, -0.35 70.17, 0 32 M0 167.09 C-0.03 126.53, 0.17 84.93, 0 32 M0 32 C0.86 9.52, 9.65 1.27, 32 0 M0 32 C-1.67 10.37, 8.68 2.13, 32 0" stroke="#1e1e1e" stroke-width="1" fill="none"></path></g><g transform="translate(149.02373504638672 83.5546875) rotate(0 115.43395233154297 22.5)"><text x="0" y="0" font-family="Virgil, Segoe UI Emoji" font-size="36px" fill="#1e1e1e" text-anchor="start" style="white-space: pre;" direction="ltr" dominant-baseline="text-before-edge">Middleware B</text></g><g stroke-linecap="round" transform="translate(129.453125 127.0703125) rotate(0 132.93359375 52.240234375)"><path d="M26.12 0 M26.12 0 C98.85 -1.71, 172.05 -0.1, 239.75 0 M26.12 0 C93.44 1.36, 158.84 1.5, 239.75 0 M239.75 0 C257.96 1.67, 264.6 9.14, 265.87 26.12 M239.75 0 C258.11 0.44, 267.31 8.45, 265.87 26.12 M265.87 26.12 C264.83 45.35, 267.37 59.65, 265.87 78.36 M265.87 26.12 C266.13 41.61, 264.95 58.87, 265.87 78.36 M265.87 78.36 C265.06 97.58, 258.91 102.79, 239.75 104.48 M265.87 78.36 C264.82 97.74, 255.41 104.4, 239.75 104.48 M239.75 104.48 C178.5 103.25, 119.21 103.76, 26.12 104.48 M239.75 104.48 C181.74 103.24, 122.31 102.13, 26.12 104.48 M26.12 104.48 C9.67 102.96, -0.23 95.27, 0 78.36 M26.12 104.48 C7.68 103.26, -0.05 96.56, 0 78.36 M0 78.36 C-0.09 63.99, 1.95 49.38, 0 26.12 M0 78.36 C1.25 64.58, -0.01 49.97, 0 26.12 M0 26.12 C-1.86 7.72, 7.48 0.35, 26.12 0 M0 26.12 C-1.92 9.71, 6.7 0.86, 26.12 0" stroke="#1e1e1e" stroke-width="1" fill="none"></path></g><g transform="translate(182.09729766845703 157) rotate(0 75.77997589111328 22.5)"><text x="0" y="0" font-family="Virgil, Segoe UI Emoji" font-size="36px" fill="#1e1e1e" text-anchor="start" style="white-space: pre;" direction="ltr" dominant-baseline="text-before-edge">Your App</text></g></svg>