<svg version="1.1" xmlns="http://www.w3.org/2000/svg" viewBox="0 0 513.4609375 505.078125" width="1026.921875" height="1010.15625">
  <!-- svg-source:excalidraw -->
  
  <defs>
    <style class="style-fonts">
      @font-face {
        font-family: "Virgil";
        src: url("https://excalidraw.com/Virgil.woff2");
      }
      @font-face {
        font-family: "Cascadia";
        src: url("https://excalidraw.com/Cascadia.woff2");
      }
    </style>
    
  </defs>
  <g stroke-linecap="round" transform="translate(10 62.8203125) rotate(0 246.73046875 216.12890625)"><path d="M32 0 M32 0 C191.96 -1.42, 352.33 -1.19, 461.46 0 M32 0 C141.79 -1.06, 252.4 -1.84, 461.46 0 M461.46 0 C481.06 -0.28, 492.06 12.5, 493.46 32 M461.46 0 C484.85 -1.5, 492.15 9.83, 493.46 32 M493.46 32 C495.11 111.33, 495.88 190.61, 493.46 400.26 M493.46 32 C492.27 119.26, 491.28 205.85, 493.46 400.26 M493.46 400.26 C491.96 422.21, 482.26 432.21, 461.46 432.26 M493.46 400.26 C493 421.03, 483.74 430.13, 461.46 432.26 M461.46 432.26 C300.51 430.89, 139.72 430.48, 32 432.26 M461.46 432.26 C309.97 433.22, 158.15 433.71, 32 432.26 M32 432.26 C10.35 430.49, 1.27 422.03, 0 400.26 M32 432.26 C12.82 430.42, 0.74 421.05, 0 400.26 M0 400.26 C2.07 325.46, 2.05 249.14, 0 32 M0 400.26 C-1.34 314.66, -0.83 228.22, 0 32 M0 32 C-1.45 9.18, 11.66 1.52, 32 0 M0 32 C1.51 12.28, 10.87 -1.33, 32 0" stroke="#1e1e1e" stroke-width="1" fill="none"></path></g><g transform="translate(200.41015625 10) rotate(0 61.361976623535156 22.5)"><text x="0" y="0" font-family="Virgil, Segoe UI Emoji" font-size="36px" fill="#1e1e1e" text-anchor="start" style="white-space: pre;" direction="ltr" dominant-baseline="text-before-edge">Uvicorn</text></g><g stroke-linecap="round" transform="translate(51.44140625 98.70703125) rotate(0 206.716796875 61.955078125)"><path d="M30.98 0 M30.98 0 C140.9 1.33, 247.76 1.87, 382.46 0 M30.98 0 C112.22 1.95, 192.54 2.18, 382.46 0 M382.46 0 C404.44 -1.99, 411.62 11.83, 413.43 30.98 M382.46 0 C402.71 -0.56, 412.72 9.73, 413.43 30.98 M413.43 30.98 C413.19 47.23, 415.19 57.91, 413.43 92.93 M413.43 30.98 C414.12 53.2, 414.67 73.42, 413.43 92.93 M413.43 92.93 C413.73 112.09, 404.32 123.01, 382.46 123.91 M413.43 92.93 C412.03 112.14, 401.69 124.46, 382.46 123.91 M382.46 123.91 C302.23 126.6, 219.08 125.14, 30.98 123.91 M382.46 123.91 C260.44 125.88, 138.23 125.84, 30.98 123.91 M30.98 123.91 C9.34 122.98, 1.49 112.66, 0 92.93 M30.98 123.91 C9.71 123.65, 1.72 113.73, 0 92.93 M0 92.93 C-0.07 67.43, -0.87 44.66, 0 30.98 M0 92.93 C-1.14 69.76, -0.81 45.1, 0 30.98 M0 30.98 C-0.98 12.3, 11.42 -0.86, 30.98 0 M0 30.98 C-0.18 11.72, 9.56 1.56, 30.98 0" stroke="#1e1e1e" stroke-width="1" fill="none"></path></g><g transform="translate(168.4102325439453 138.162109375) rotate(0 89.74797058105469 22.5)"><text x="89.74797058105469" y="0" font-family="Virgil, Segoe UI Emoji" font-size="36px" fill="#1e1e1e" text-anchor="middle" style="white-space: pre;" direction="ltr" dominant-baseline="text-before-edge">Connection</text></g><g stroke-linecap="round" transform="translate(49.892578125 242.966796875) rotate(0 206.716796875 61.955078125)"><path d="M30.98 0 M30.98 0 C158.05 -0.23, 284.9 0.97, 382.46 0 M30.98 0 C112.51 1.61, 194.64 0.85, 382.46 0 M382.46 0 C402.73 1.61, 412.84 11.28, 413.43 30.98 M382.46 0 C402.23 0.55, 413.73 10.95, 413.43 30.98 M413.43 30.98 C413.38 53.6, 411.07 77.07, 413.43 92.93 M413.43 30.98 C413.39 44.61, 412.46 59.93, 413.43 92.93 M413.43 92.93 C414.37 112.1, 402.33 123.94, 382.46 123.91 M413.43 92.93 C415.73 111.59, 404.8 121.88, 382.46 123.91 M382.46 123.91 C262.65 123.98, 142.48 124.04, 30.98 123.91 M382.46 123.91 C279.47 122.01, 177.9 121.82, 30.98 123.91 M30.98 123.91 C11.64 125.75, -0.28 114.88, 0 92.93 M30.98 123.91 C8.77 125.02, 1.98 112.71, 0 92.93 M0 92.93 C-0.04 78.68, -0.29 65.15, 0 30.98 M0 92.93 C0.28 80.14, -1.45 66.12, 0 30.98 M0 30.98 C0.78 8.46, 10.18 -0.14, 30.98 0 M0 30.98 C0.63 12.44, 10.55 -1.69, 30.98 0" stroke="#1e1e1e" stroke-width="1" fill="none"></path></g><g transform="translate(166.8614044189453 282.421875) rotate(0 89.74797058105469 22.5)"><text x="89.74797058105469" y="0" font-family="Virgil, Segoe UI Emoji" font-size="36px" fill="#1e1e1e" text-anchor="middle" style="white-space: pre;" direction="ltr" dominant-baseline="text-before-edge">Connection</text></g><g stroke-linecap="round" transform="translate(237.04296875 390.0625) rotate(0 9.853515625 9.271484375)"><path d="M7.75 -0.59 C9.74 -1.29, 12.72 -0.55, 14.64 0.44 C16.55 1.42, 18.32 3.41, 19.24 5.32 C20.17 7.23, 20.87 10.1, 20.16 11.91 C19.46 13.72, 16.76 15.17, 15.02 16.19 C13.28 17.2, 11.6 18.09, 9.71 18.01 C7.82 17.93, 5.37 16.9, 3.68 15.7 C1.99 14.5, -0.15 12.61, -0.43 10.82 C-0.72 9.03, 0.43 6.64, 1.96 4.97 C3.49 3.3, 7.69 1.56, 8.74 0.79 C9.78 0.02, 8.28 0.2, 8.23 0.35 M9.01 0.68 C10.83 0.02, 11.13 0.09, 12.9 0.7 C14.67 1.31, 18.66 2.47, 19.63 4.33 C20.6 6.19, 19.64 9.94, 18.72 11.88 C17.79 13.82, 15.83 14.69, 14.07 15.97 C12.3 17.24, 10.2 19.5, 8.15 19.52 C6.1 19.53, 3.01 17.7, 1.77 16.05 C0.52 14.4, 0.49 11.9, 0.69 9.61 C0.89 7.33, 2 3.81, 2.97 2.34 C3.93 0.86, 5.92 1.29, 6.45 0.77 C6.99 0.24, 5.95 -1.15, 6.18 -0.84" stroke="#1e1e1e" stroke-width="1" fill="none"></path></g><g stroke-linecap="round" transform="translate(238.037109375 422.787109375) rotate(0 9.853515625 9.271484375)"><path d="M13.73 -0.07 C15.62 0.39, 17.63 2.88, 18.72 4.76 C19.8 6.65, 20.78 9.29, 20.26 11.24 C19.75 13.19, 17.22 15.08, 15.63 16.45 C14.05 17.82, 12.71 19.44, 10.76 19.47 C8.81 19.49, 5.76 18.01, 3.93 16.6 C2.11 15.19, 0.39 13.05, -0.19 11.01 C-0.76 8.96, -0.57 6.06, 0.46 4.32 C1.49 2.57, 3.55 0.99, 5.97 0.52 C8.4 0.05, 13.28 1.05, 14.99 1.5 C16.69 1.95, 16.23 2.97, 16.2 3.22 M5.45 0.54 C7.06 -0.2, 10.91 0.29, 13.25 0.81 C15.59 1.33, 18.47 1.98, 19.48 3.67 C20.49 5.36, 19.72 8.85, 19.31 10.97 C18.91 13.09, 18.6 14.98, 17.05 16.38 C15.49 17.79, 12.35 19.36, 10.01 19.39 C7.67 19.42, 4.74 17.84, 2.98 16.56 C1.22 15.28, -0.12 13.55, -0.56 11.71 C-1 9.86, -0.58 7.3, 0.34 5.49 C1.25 3.68, 3.74 1.59, 4.95 0.84 C6.16 0.09, 7.23 0.82, 7.61 0.97" stroke="#1e1e1e" stroke-width="1" fill="none"></path></g><g stroke-linecap="round" transform="translate(238.509765625 455.955078125) rotate(0 9.853515625 9.271484375)"><path d="M6.39 1.27 C8.29 0.55, 11.43 0.89, 13.45 1.55 C15.47 2.2, 17.49 3.57, 18.5 5.21 C19.52 6.85, 19.97 9.52, 19.55 11.4 C19.13 13.27, 17.54 15.29, 16 16.46 C14.47 17.62, 12.38 18.44, 10.32 18.38 C8.26 18.32, 5.4 17.33, 3.63 16.1 C1.86 14.87, -0.02 12.94, -0.27 11.01 C-0.53 9.08, 0.48 6.45, 2.12 4.54 C3.76 2.64, 7.99 0.11, 9.54 -0.41 C11.1 -0.94, 11.47 1.32, 11.47 1.39 M5.06 1.49 C6.73 0.6, 9.87 -0.97, 11.83 -0.51 C13.8 -0.04, 15.78 2.45, 16.84 4.27 C17.9 6.1, 18.27 8.69, 18.19 10.44 C18.11 12.2, 17.45 13.24, 16.37 14.8 C15.28 16.35, 13.53 19.36, 11.68 19.79 C9.83 20.22, 7.07 18.57, 5.27 17.39 C3.47 16.21, 1.41 14.56, 0.88 12.71 C0.34 10.85, 1.29 8.23, 2.07 6.25 C2.85 4.28, 5.01 1.66, 5.57 0.84 C6.13 0.03, 5.24 1.23, 5.44 1.38" stroke="#1e1e1e" stroke-width="1" fill="none"></path></g></svg>