<svg version="1.1" xmlns="http://www.w3.org/2000/svg" viewBox="0 0 729.021484375 161.783203125" width="1458.04296875" height="323.56640625">
  <!-- svg-source:excalidraw -->
  
  <defs>
    <style class="style-fonts">
      @font-face {
        font-family: "Virgil";
        src: url("https://excalidraw.com/Virgil.woff2");
      }
      @font-face {
        font-family: "Cascadia";
        src: url("https://excalidraw.com/Cascadia.woff2");
      }
    </style>
    
  </defs>
  <g stroke-linecap="round" transform="translate(10 10.951171875) rotate(0 122.099609375 70.416015625)"><path d="M32 0 M32 0 C90.5 0.18, 151.16 0.96, 212.2 0 M32 0 C80.25 -0.07, 130.55 -0.59, 212.2 0 M212.2 0 C232.54 -0.21, 242.29 10.8, 244.2 32 M212.2 0 C231.98 1.81, 243.46 9.48, 244.2 32 M244.2 32 C244.47 60.39, 244.78 88.28, 244.2 108.83 M244.2 32 C243.52 61.09, 243.47 91.82, 244.2 108.83 M244.2 108.83 C243.73 130.49, 233.88 141.36, 212.2 140.83 M244.2 108.83 C245.48 130.26, 232.17 138.83, 212.2 140.83 M212.2 140.83 C168.88 137.71, 129.5 140.82, 32 140.83 M212.2 140.83 C159.34 141.15, 107.19 140.84, 32 140.83 M32 140.83 C11.59 140.99, -1.95 130.35, 0 108.83 M32 140.83 C8.88 142.98, -2.18 129.25, 0 108.83 M0 108.83 C-1.11 81, -0.24 52.45, 0 32 M0 108.83 C-1.18 81.96, -1.33 55.71, 0 32 M0 32 C-0.15 10.01, 11.73 0.92, 32 0 M0 32 C-0.83 12.92, 10.88 -0.6, 32 0" stroke="#1e1e1e" stroke-width="1" fill="none"></path></g><g transform="translate(76.56963348388672 58.8671875) rotate(0 55.52997589111328 22.5)"><text x="55.52997589111328" y="0" font-family="Virgil, Segoe UI Emoji" font-size="36px" fill="#1e1e1e" text-anchor="middle" style="white-space: pre;" direction="ltr" dominant-baseline="text-before-edge">Server</text></g><g stroke-linecap="round" transform="translate(474.822265625 10) rotate(0 122.099609375 70.416015625)"><path d="M32 0 M32 0 C74.54 -1.18, 116.91 -0.35, 212.2 0 M32 0 C80.7 0.8, 130.66 1.74, 212.2 0 M212.2 0 C231.83 -0.51, 242.88 11.29, 244.2 32 M212.2 0 C231.97 -1.77, 242.68 12.53, 244.2 32 M244.2 32 C242.67 58.9, 243.41 86.5, 244.2 108.83 M244.2 32 C244.43 59.25, 244.81 86.23, 244.2 108.83 M244.2 108.83 C242.69 131.15, 233.94 139.04, 212.2 140.83 M244.2 108.83 C243 128.53, 235.37 142.6, 212.2 140.83 M212.2 140.83 C174.32 138.63, 134.3 140.64, 32 140.83 M212.2 140.83 C164.48 140.55, 117.37 140.48, 32 140.83 M32 140.83 C11.6 139.62, -1.97 132.15, 0 108.83 M32 140.83 C9.56 142.15, -1.46 129.25, 0 108.83 M0 108.83 C-1.31 79.82, -1.86 50.34, 0 32 M0 108.83 C0.23 91.65, -0.17 74.2, 0 32 M0 32 C-1.51 11.33, 10.9 1.44, 32 0 M0 32 C1 9.41, 11.53 -2.09, 32 0" stroke="#1e1e1e" stroke-width="1" fill="none"></path></g><g transform="translate(548.2319030761719 57.916015625) rotate(0 48.689971923828125 22.5)"><text x="48.689971923828125" y="0" font-family="Virgil, Segoe UI Emoji" font-size="36px" fill="#1e1e1e" text-anchor="middle" style="white-space: pre;" direction="ltr" dominant-baseline="text-before-edge">Client</text></g><g stroke-linecap="round"><g transform="translate(460.14453125 80.46415148236667) rotate(0 -97.00361190487632 -1.163428945760586)"><path d="M-0.09 -0.11 C-32.24 -0.06, -160.84 -0.23, -192.95 -0.3 M-1.6 -1.22 C-33.9 -1.46, -161.95 -2.51, -193.91 -2.15" stroke="#1e1e1e" stroke-width="1" fill="none"></path></g><g transform="translate(460.14453125 80.46415148236667) rotate(0 -97.00361190487632 -1.163428945760586)"><path d="M-165.91 -12.46 C-173.18 -9.11, -181.83 -7.99, -193.85 -0.2 M-164.97 -12.61 C-175.04 -8.57, -183.14 -6.14, -194.81 -1.99" stroke="#1e1e1e" stroke-width="1" fill="none"></path></g><g transform="translate(460.14453125 80.46415148236667) rotate(0 -97.00361190487632 -1.163428945760586)"><path d="M-165.91 8.06 C-173.07 5.4, -181.72 0.51, -193.85 -0.2 M-164.97 7.91 C-174.99 5.56, -183.09 1.6, -194.81 -1.99" stroke="#1e1e1e" stroke-width="1" fill="none"></path></g></g><mask></mask></svg>