<svg version="1.1" xmlns="http://www.w3.org/2000/svg" viewBox="0 0 803.6796875 175.91796875" width="2411.0390625" height="527.75390625">
  <!-- svg-source:excalidraw -->
  
  <defs>
    <style class="style-fonts">
      @font-face {
        font-family: "Virgil";
        src: url("https://excalidraw.com/Virgil.woff2");
      }
      @font-face {
        font-family: "Cascadia";
        src: url("https://excalidraw.com/Cascadia.woff2");
      }
    </style>
    
  </defs>
  <g stroke-linecap="round" transform="translate(10 19.80859375) rotate(0 130.44921875 69.3984375)"><path d="M32 0 M32 0 C97.41 1.08, 160.35 0.87, 228.9 0 M32 0 C99.33 1.51, 167.43 1.45, 228.9 0 M228.9 0 C252.2 -0.55, 258.97 8.83, 260.9 32 M228.9 0 C248.5 -1.89, 261.92 8.68, 260.9 32 M260.9 32 C260.16 62.12, 258.39 89.27, 260.9 106.8 M260.9 32 C260.39 57.6, 261.3 83.39, 260.9 106.8 M260.9 106.8 C261.85 129.77, 249.94 139.63, 228.9 138.8 M260.9 106.8 C261.66 129.44, 248.75 140.26, 228.9 138.8 M228.9 138.8 C171.75 139.53, 115.36 137, 32 138.8 M228.9 138.8 C152.19 139.17, 74.4 139.97, 32 138.8 M32 138.8 C9.65 138.62, 0.02 128.13, 0 106.8 M32 138.8 C11 138.42, -1.56 126.19, 0 106.8 M0 106.8 C-1.02 86.48, -0.03 67.95, 0 32 M0 106.8 C-0.58 80.49, -1.5 53.83, 0 32 M0 32 C1.51 12.5, 11.75 0.84, 32 0 M0 32 C-0.39 12.82, 11.5 -0.54, 32 0" stroke="#1e1e1e" stroke-width="1" fill="none"></path></g><g transform="translate(84.91924285888672 66.70703125) rotate(0 55.52997589111328 22.5)"><text x="55.52997589111328" y="0" font-family="Virgil, Segoe UI Emoji" font-size="36px" fill="#1e1e1e" text-anchor="middle" style="white-space: pre;" direction="ltr" dominant-baseline="text-before-edge">Server</text></g><g stroke-linecap="round" transform="translate(532.78125 20.89453125) rotate(0 130.44921875 69.3984375)"><path d="M32 0 M32 0 C91.21 1.81, 151.35 1.24, 228.9 0 M32 0 C73.7 1.07, 115.55 1.08, 228.9 0 M228.9 0 C249.01 0.33, 260.38 9.68, 260.9 32 M228.9 0 C249.3 -0.97, 262.06 11.56, 260.9 32 M260.9 32 C261.83 59.29, 261.71 89.31, 260.9 106.8 M260.9 32 C261.26 51.84, 260.43 69.41, 260.9 106.8 M260.9 106.8 C260.53 126.17, 250.08 137.69, 228.9 138.8 M260.9 106.8 C262.03 129.04, 251.54 137.13, 228.9 138.8 M228.9 138.8 C161.8 138.1, 91.5 139.53, 32 138.8 M228.9 138.8 C173.12 139.49, 117.25 140.5, 32 138.8 M32 138.8 C11.23 139.7, -0.44 126.34, 0 106.8 M32 138.8 C10.24 137.06, -2.1 128.2, 0 106.8 M0 106.8 C-0.04 91.84, -1.64 75.67, 0 32 M0 106.8 C-1.1 79.87, -0.04 55.44, 0 32 M0 32 C0.31 11.51, 11.84 -1.44, 32 0 M0 32 C-1.19 11.94, 11.44 1.14, 32 0" stroke="#1e1e1e" stroke-width="1" fill="none"></path></g><g transform="translate(614.5404968261719 67.79296875) rotate(0 48.689971923828125 22.5)"><text x="48.689971923828125" y="0" font-family="Virgil, Segoe UI Emoji" font-size="36px" fill="#1e1e1e" text-anchor="middle" style="white-space: pre;" direction="ltr" dominant-baseline="text-before-edge">Client</text></g><g stroke-linecap="round"><g transform="translate(521.453125 60.464594390676496) rotate(0 -117.7202377815172 1.4578646993852544)"><path d="M-1.08 0.81 C-40.22 0.88, -195.89 1.26, -234.88 1.22 M0.56 0.19 C-38.77 0.39, -196.57 2.5, -236 2.73" stroke="#1e1e1e" stroke-width="1" fill="none"></path></g><g transform="translate(521.453125 60.464594390676496) rotate(0 -117.7202377815172 1.4578646993852544)"><path d="M-206.56 -8.38 C-216.36 -5.71, -225.83 -1.18, -237.37 3.1 M-208.73 -6.95 C-215.77 -5.37, -222.44 -3.3, -236.95 3.21" stroke="#1e1e1e" stroke-width="1" fill="none"></path></g><g transform="translate(521.453125 60.464594390676496) rotate(0 -117.7202377815172 1.4578646993852544)"><path d="M-206.36 12.14 C-216.36 8.67, -225.89 7.05, -237.37 3.1 M-208.53 13.57 C-215.76 9.86, -222.48 6.65, -236.95 3.21" stroke="#1e1e1e" stroke-width="1" fill="none"></path></g></g><mask></mask><g transform="translate(344.70703125 10) rotate(0 55.915977478027344 17.5)"><text x="0" y="0" font-family="Virgil, Segoe UI Emoji" font-size="28px" fill="#1e1e1e" text-anchor="start" style="white-space: pre;" direction="ltr" dominant-baseline="text-before-edge">Request</text></g><g stroke-linecap="round"><g transform="translate(288.9375 111.92578125) rotate(0 114.27057148377412 -0.7042934491764754)"><path d="M-0.09 0.92 C38.4 0.61, 191.66 -0.35, 230.14 -0.69 M-1.6 0.36 C36.77 0.23, 190.31 -1.74, 228.93 -2.33" stroke="#1e1e1e" stroke-width="1" fill="none"></path></g><g transform="translate(288.9375 111.92578125) rotate(0 114.27057148377412 -0.7042934491764754)"><path d="M202.42 7.5 C208.82 6.17, 214.64 3.57, 230.27 -0.35 M201.71 8.33 C209.37 5.53, 218.32 2.79, 228.87 -1.83" stroke="#1e1e1e" stroke-width="1" fill="none"></path></g><g transform="translate(288.9375 111.92578125) rotate(0 114.27057148377412 -0.7042934491764754)"><path d="M202.14 -13.02 C208.81 -9.59, 214.69 -7.41, 230.27 -0.35 M201.43 -12.19 C209.36 -8.69, 218.4 -5.13, 228.87 -1.83" stroke="#1e1e1e" stroke-width="1" fill="none"></path></g></g><mask></mask><g transform="translate(341.625 130.91796875) rotate(0 61.207969665527344 17.5)"><text x="0" y="0" font-family="Virgil, Segoe UI Emoji" font-size="28px" fill="#1e1e1e" text-anchor="start" style="white-space: pre;" direction="ltr" dominant-baseline="text-before-edge">Response</text></g></svg>